solid 
  facet normal 0.9341756701469421 -0.3035334348678589 -0.18757201731204987
    outer loop
      vertex -1.8200000524520874 -8.121999740600586 13.763999938964844
      vertex -4.909999847412109 -12.375 5.256999969482422
      vertex -1.8200000524520874 -2.865000009536743 5.256999969482422
    endloop
  endfacet
  facet normal 0.5773715376853943 -0.7946471571922302 0.18755802512168884
    outer loop
      vertex -1.8200000524520874 -8.121999740600586 13.763999938964844
      vertex -9.90999984741211 -14 13.763999938964844
      vertex -4.909999847412109 -12.375 5.256999969482422
    endloop
  endfacet
  facet normal 0 -0.9822403788566589 -0.18762673437595367
    outer loop
      vertex -9.90999984741211 -14 13.763999938964844
      vertex -14.90999984741211 -12.375 5.256999969482422
      vertex -4.909999847412109 -12.375 5.256999969482422
    endloop
  endfacet
  facet normal 0 0.9822403788566589 0.18762673437595367
    outer loop
      vertex -14.90999984741211 1.3880000114440918 13.763999938964844
      vertex -4.909999847412109 1.3880000114440918 13.763999938964844
      vertex -9.90999984741211 3.013000011444092 5.256999969482422
    endloop
  endfacet
  facet normal 0.5773715376853943 0.7946471571922302 -0.18755802512168884
    outer loop
      vertex -4.909999847412109 1.3880000114440918 13.763999938964844
      vertex -1.8200000524520874 -2.865000009536743 5.256999969482422
      vertex -9.90999984741211 3.013000011444092 5.256999969482422
    endloop
  endfacet
  facet normal 0.9341756701469421 0.3035334348678589 0.18757201731204987
    outer loop
      vertex -4.909999847412109 1.3880000114440918 13.763999938964844
      vertex -1.8200000524520874 -8.121999740600586 13.763999938964844
      vertex -1.8200000524520874 -2.865000009536743 5.256999969482422
    endloop
  endfacet
  facet normal -0.9341756701469421 -0.3035334348678589 -0.18757201731204987
    outer loop
      vertex -18 -8.121999740600586 13.763999938964844
      vertex -18 -2.865000009536743 5.256999969482422
      vertex -14.90999984741211 -12.375 5.256999969482422
    endloop
  endfacet
  facet normal -0.9341756701469421 0.3035334348678589 0.18757201731204987
    outer loop
      vertex -18 -8.121999740600586 13.763999938964844
      vertex -14.90999984741211 1.3880000114440918 13.763999938964844
      vertex -18 -2.865000009536743 5.256999969482422
    endloop
  endfacet
  facet normal -0.5773715376853943 0.7946471571922302 -0.18755802512168884
    outer loop
      vertex -14.90999984741211 1.3880000114440918 13.763999938964844
      vertex -9.90999984741211 3.013000011444092 5.256999969482422
      vertex -18 -2.865000009536743 5.256999969482422
    endloop
  endfacet
  facet normal -0.35683655738830566 0.49112075567245483 -0.7946496605873108
    outer loop
      vertex -9.90999984741211 -5.493000030517578 -6.016940892468285e-16
      vertex -18 -2.865000009536743 5.256999969482422
      vertex -9.90999984741211 3.013000011444092 5.256999969482422
    endloop
  endfacet
  facet normal 0.35683655738830566 0.49112075567245483 -0.7946496605873108
    outer loop
      vertex -9.90999984741211 3.013000011444092 5.256999969482422
      vertex -1.8200000524520874 -2.865000009536743 5.256999969482422
      vertex -9.90999984741211 -5.493000030517578 -6.016940892468285e-16
    endloop
  endfacet
  facet normal 0.5773265957832336 -0.18758562207221985 -0.7946732640266418
    outer loop
      vertex -1.8200000524520874 -2.865000009536743 5.256999969482422
      vertex -4.909999847412109 -12.375 5.256999969482422
      vertex -9.90999984741211 -5.493000030517578 -6.016940892468285e-16
    endloop
  endfacet
  facet normal 0.3568100929260254 -0.4910843074321747 0.7946840524673462
    outer loop
      vertex -9.90999984741211 -14 13.763999938964844
      vertex -1.8200000524520874 -8.121999740600586 13.763999938964844
      vertex -9.90999984741211 -5.493000030517578 19.020999908447266
    endloop
  endfacet
  facet normal -0.3568100929260254 -0.4910843074321747 0.7946840524673462
    outer loop
      vertex -18 -8.121999740600586 13.763999938964844
      vertex -9.90999984741211 -14 13.763999938964844
      vertex -9.90999984741211 -5.493000030517578 19.020999908447266
    endloop
  endfacet
  facet normal 0 -0.6070342659950256 -0.7946756482124329
    outer loop
      vertex -4.909999847412109 -12.375 5.256999969482422
      vertex -14.90999984741211 -12.375 5.256999969482422
      vertex -9.90999984741211 -5.493000030517578 -6.016940892468285e-16
    endloop
  endfacet
  facet normal -0.5773265957832336 -0.18758562207221985 -0.7946732640266418
    outer loop
      vertex -14.90999984741211 -12.375 5.256999969482422
      vertex -18 -2.865000009536743 5.256999969482422
      vertex -9.90999984741211 -5.493000030517578 -6.016940892468285e-16
    endloop
  endfacet
  facet normal -0.5773715376853943 -0.7946471571922302 0.18755802512168884
    outer loop
      vertex -14.90999984741211 -12.375 5.256999969482422
      vertex -9.90999984741211 -14 13.763999938964844
      vertex -18 -8.121999740600586 13.763999938964844
    endloop
  endfacet
  facet normal -0.5773429870605469 0.18759094178676605 0.7946600914001465
    outer loop
      vertex -14.90999984741211 1.3880000114440918 13.763999938964844
      vertex -18 -8.121999740600586 13.763999938964844
      vertex -9.90999984741211 -5.493000030517578 19.020999908447266
    endloop
  endfacet
  facet normal 0 0.6070899963378906 0.7946330904960632
    outer loop
      vertex -4.909999847412109 1.3880000114440918 13.763999938964844
      vertex -14.90999984741211 1.3880000114440918 13.763999938964844
      vertex -9.90999984741211 -5.493000030517578 19.020999908447266
    endloop
  endfacet
  facet normal 0.5773429870605469 0.18759094178676605 0.7946600914001465
    outer loop
      vertex -1.8200000524520874 -8.121999740600586 13.763999938964844
      vertex -4.909999847412109 1.3880000114440918 13.763999938964844
      vertex -9.90999984741211 -5.493000030517578 19.020999908447266
    endloop
  endfacet
endsolid 
