solid ascii
  facet normal -2.24215e-06 -0.894427 -0.447214
    outer loop
      vertex   50 38.2918 7.23605
      vertex   40.4894 36.9098 10
      vertex   44.1222 41.9098 -1.96363e-06
    endloop
  endfacet
  facet normal -0.850652 -0.276393 -0.447212
    outer loop
      vertex   38.8649 46.382 7.23605
      vertex   44.1222 41.9098 -1.96363e-06
      vertex   40.4894 36.9098 10
    endloop
  endfacet
  facet normal -0.850652 -0.276394 -0.447212
    outer loop
      vertex   38.8649 46.382 7.23605
      vertex   40.4894 53.0902 5.2714e-08
      vertex   44.1222 41.9098 -1.96363e-06
    endloop
  endfacet
  facet normal 1.67037e-07 1.29578e-07 -1
    outer loop
      vertex   50 50 6.64961e-08
      vertex   55.8778 41.9098 0
      vertex   44.1222 41.9098 -1.96363e-06
    endloop
  endfacet
  facet normal 6.71353e-08 2.02161e-07 -1
    outer loop
      vertex   50 50 6.64961e-08
      vertex   44.1222 41.9098 -1.96363e-06
      vertex   40.4894 53.0902 5.2714e-08
    endloop
  endfacet
  facet normal 7.47014e-08 -0.894426 -0.447215
    outer loop
      vertex   50 38.2918 7.23605
      vertex   44.1222 41.9098 -1.96363e-06
      vertex   55.8778 41.9098 0
    endloop
  endfacet
  facet normal 0.525732 0.723607 -0.447212
    outer loop
      vertex   56.8819 59.4721 7.23607
      vertex   59.5106 53.0902 3.3122e-06
      vertex   50 60 -1.0688e-06
    endloop
  endfacet
  facet normal -3.54388e-08 -1.13529e-07 -1
    outer loop
      vertex   50 50 6.64961e-08
      vertex   40.4894 53.0902 5.2714e-08
      vertex   50 60 -1.0688e-06
    endloop
  endfacet
  facet normal 3.78161e-07 -1.1353e-07 -1
    outer loop
      vertex   50 50 6.64961e-08
      vertex   50 60 -1.0688e-06
      vertex   59.5106 53.0902 3.3122e-06
    endloop
  endfacet
  facet normal 0.525732 0.723607 -0.447212
    outer loop
      vertex   56.8819 59.4721 7.23607
      vertex   50 60 -1.0688e-06
      vertex   50 66.1803 10
    endloop
  endfacet
  facet normal -0.525731 0.723607 -0.447212
    outer loop
      vertex   43.1181 59.4721 7.23605
      vertex   50 66.1803 10
      vertex   50 60 -1.0688e-06
    endloop
  endfacet
  facet normal -0.525732 0.723607 -0.447212
    outer loop
      vertex   43.1181 59.4721 7.23605
      vertex   50 60 -1.0688e-06
      vertex   40.4894 53.0902 5.2714e-08
    endloop
  endfacet
  facet normal 0.850651 -0.276394 -0.447213
    outer loop
      vertex   61.1351 46.382 7.23605
      vertex   55.8778 41.9098 0
      vertex   59.5106 53.0902 3.3122e-06
    endloop
  endfacet
  facet normal 2.27068e-06 -0.894427 -0.447214
    outer loop
      vertex   50 38.2918 7.23605
      vertex   55.8778 41.9098 0
      vertex   59.5106 36.9098 10
    endloop
  endfacet
  facet normal 0.850651 -0.276393 -0.447214
    outer loop
      vertex   61.1351 46.382 7.23605
      vertex   59.5106 36.9098 10
      vertex   55.8778 41.9098 0
    endloop
  endfacet
  facet normal 2.73935e-07 2.07245e-07 -1
    outer loop
      vertex   50 50 6.64961e-08
      vertex   59.5106 53.0902 3.3122e-06
      vertex   55.8778 41.9098 0
    endloop
  endfacet
  facet normal -0.850651 -0.276394 -0.447212
    outer loop
      vertex   38.8649 46.382 7.23605
      vertex   34.6116 55 9.99998
      vertex   40.4894 53.0902 5.2714e-08
    endloop
  endfacet
  facet normal -0.525732 0.723607 -0.447212
    outer loop
      vertex   43.1181 59.4721 7.23605
      vertex   40.4894 53.0902 5.2714e-08
      vertex   34.6116 55 9.99998
    endloop
  endfacet
  facet normal 0.525732 0.723607 -0.447212
    outer loop
      vertex   56.8819 59.4721 7.23607
      vertex   65.3884 55 9.99999
      vertex   59.5106 53.0902 3.3122e-06
    endloop
  endfacet
  facet normal 0.850651 -0.276393 -0.447213
    outer loop
      vertex   61.1351 46.382 7.23605
      vertex   59.5106 53.0902 3.3122e-06
      vertex   65.3884 55 9.99999
    endloop
  endfacet
  facet normal -0.850651 0.276393 0.447213
    outer loop
      vertex   59.4338 46.9348 8.13047
      vertex   58.0575 52.618 2
      vertex   54.9798 43.1459 2
    endloop
  endfacet
  facet normal -0.850651 0.276393 0.447213
    outer loop
      vertex   59.4338 46.9348 8.13047
      vertex   54.9798 43.1459 2
      vertex   58.0574 38.9099 10.4721
    endloop
  endfacet
  facet normal 0.525731 -0.723607 0.447213
    outer loop
      vertex   44.1696 58.0249 8.13049
      vertex   50 58.4721 2
      vertex   50 63.7082 10.4721
    endloop
  endfacet
  facet normal -0.525732 -0.723607 0.447213
    outer loop
      vertex   55.8304 58.0249 8.13049
      vertex   50 58.4721 2
      vertex   58.0575 52.618 2
    endloop
  endfacet
  facet normal -0.525732 -0.723607 0.447213
    outer loop
      vertex   55.8304 58.0249 8.13049
      vertex   50 63.7082 10.4721
      vertex   50 58.4721 2
    endloop
  endfacet
  facet normal 0.525731 -0.723607 0.447212
    outer loop
      vertex   44.1696 58.0249 8.13049
      vertex   41.9425 52.618 2
      vertex   50 58.4721 2
    endloop
  endfacet
  facet normal -0.525732 -0.723607 0.447213
    outer loop
      vertex   55.8304 58.0249 8.13049
      vertex   58.0575 52.618 2
      vertex   63.0373 54.236 10.4721
    endloop
  endfacet
  facet normal 1.6266e-07 0.894427 0.447213
    outer loop
      vertex   50 40.0807 8.13047
      vertex   45.0202 43.1459 2
      vertex   41.9426 38.9099 10.4721
    endloop
  endfacet
  facet normal 0 0 1
    outer loop
      vertex   50 50 2
      vertex   41.9425 52.618 2
      vertex   45.0202 43.1459 2
    endloop
  endfacet
  facet normal -0.850651 0.276393 0.447213
    outer loop
      vertex   59.4338 46.9348 8.13047
      vertex   63.0373 54.236 10.4721
      vertex   58.0575 52.618 2
    endloop
  endfacet
  facet normal 0.525731 -0.723607 0.447212
    outer loop
      vertex   44.1696 58.0249 8.13049
      vertex   36.9627 54.2361 10.4721
      vertex   41.9425 52.618 2
    endloop
  endfacet
  facet normal 0 0.894427 0.447213
    outer loop
      vertex   50 40.0807 8.13047
      vertex   54.9798 43.1459 2
      vertex   45.0202 43.1459 2
    endloop
  endfacet
  facet normal -7.70129e-08 0.894427 0.447213
    outer loop
      vertex   50 40.0807 8.13047
      vertex   58.0574 38.9099 10.4721
      vertex   54.9798 43.1459 2
    endloop
  endfacet
  facet normal 0 -0 1
    outer loop
      vertex   50 50 2
      vertex   54.9798 43.1459 2
      vertex   58.0575 52.618 2
    endloop
  endfacet
  facet normal 0.850651 0.276393 0.447213
    outer loop
      vertex   40.5662 46.9348 8.13046
      vertex   45.0202 43.1459 2
      vertex   41.9425 52.618 2
    endloop
  endfacet
  facet normal 0 0 1
    outer loop
      vertex   50 50 2
      vertex   50 58.4721 2
      vertex   41.9425 52.618 2
    endloop
  endfacet
  facet normal 0 0 1
    outer loop
      vertex   50 50 2
      vertex   58.0575 52.618 2
      vertex   50 58.4721 2
    endloop
  endfacet
  facet normal 0.850651 0.276393 0.447213
    outer loop
      vertex   40.5662 46.9348 8.13046
      vertex   41.9425 52.618 2
      vertex   36.9627 54.2361 10.4721
    endloop
  endfacet
  facet normal 0 0 1
    outer loop
      vertex   50 50 2
      vertex   45.0202 43.1459 2
      vertex   54.9798 43.1459 2
    endloop
  endfacet
  facet normal 0.850651 0.276393 0.447212
    outer loop
      vertex   40.5662 46.9348 8.13046
      vertex   41.9426 38.9099 10.4721
      vertex   45.0202 43.1459 2
    endloop
  endfacet
  facet normal -4.85318e-06 -0.894423 -0.447221
    outer loop
      vertex   50 38.2918 7.23605
      vertex   50 33.8196 16.1802
      vertex   40.4894 36.9098 10
    endloop
  endfacet
  facet normal 4.85318e-06 -0.894423 -0.447221
    outer loop
      vertex   50 38.2918 7.23605
      vertex   59.5106 36.9098 10
      vertex   50 33.8196 16.1802
    endloop
  endfacet
  facet normal -0.850653 -0.276392 -0.447211
    outer loop
      vertex   38.8649 46.382 7.23605
      vertex   40.4894 36.9098 10
      vertex   34.6116 45.0001 16.1803
    endloop
  endfacet
  facet normal -0.850652 -0.276395 -0.447211
    outer loop
      vertex   38.8649 46.382 7.23605
      vertex   34.6116 45.0001 16.1803
      vertex   34.6116 55 9.99998
    endloop
  endfacet
  facet normal 0.850651 -0.276393 -0.447213
    outer loop
      vertex   61.1351 46.382 7.23605
      vertex   65.3884 45 16.1803
      vertex   59.5106 36.9098 10
    endloop
  endfacet
  facet normal 0.850651 -0.276393 -0.447213
    outer loop
      vertex   61.1351 46.382 7.23605
      vertex   65.3884 55 9.99999
      vertex   65.3884 45 16.1803
    endloop
  endfacet
  facet normal -0.525731 0.723607 -0.447213
    outer loop
      vertex   43.1181 59.4721 7.23605
      vertex   40.4895 63.0901 16.1803
      vertex   50 66.1803 10
    endloop
  endfacet
  facet normal -0.525732 0.723607 -0.447213
    outer loop
      vertex   43.1181 59.4721 7.23605
      vertex   34.6116 55 9.99998
      vertex   40.4895 63.0901 16.1803
    endloop
  endfacet
  facet normal 0.525732 0.723607 -0.447212
    outer loop
      vertex   56.8819 59.4721 7.23607
      vertex   50 66.1803 10
      vertex   59.5106 63.0901 16.1803
    endloop
  endfacet
  facet normal 0.525732 0.723607 -0.447212
    outer loop
      vertex   56.8819 59.4721 7.23607
      vertex   59.5106 63.0901 16.1803
      vertex   65.3884 55 9.99999
    endloop
  endfacet
  facet normal 0.850651 0.276393 0.447213
    outer loop
      vertex   40.5662 46.9348 8.13046
      vertex   36.9628 45.764 15.7081
      vertex   41.9426 38.9099 10.4721
    endloop
  endfacet
  facet normal 0.850651 0.276393 0.447213
    outer loop
      vertex   40.5662 46.9348 8.13046
      vertex   36.9627 54.2361 10.4721
      vertex   36.9628 45.764 15.7081
    endloop
  endfacet
  facet normal -7.22423e-08 0.894427 0.447213
    outer loop
      vertex   50 40.0807 8.13047
      vertex   50 36.2918 15.7082
      vertex   58.0574 38.9099 10.4721
    endloop
  endfacet
  facet normal 1.78108e-07 0.894427 0.447213
    outer loop
      vertex   50 40.0807 8.13047
      vertex   41.9426 38.9099 10.4721
      vertex   50 36.2918 15.7082
    endloop
  endfacet
  facet normal -0.850651 0.276393 0.447213
    outer loop
      vertex   59.4338 46.9348 8.13047
      vertex   63.0372 45.764 15.7081
      vertex   63.0373 54.236 10.4721
    endloop
  endfacet
  facet normal -0.850651 0.276393 0.447213
    outer loop
      vertex   59.4338 46.9348 8.13047
      vertex   58.0574 38.9099 10.4721
      vertex   63.0372 45.764 15.7081
    endloop
  endfacet
  facet normal 0.525731 -0.723607 0.447213
    outer loop
      vertex   44.1696 58.0249 8.13049
      vertex   41.9425 61.0901 15.7082
      vertex   36.9627 54.2361 10.4721
    endloop
  endfacet
  facet normal 0.525731 -0.723607 0.447213
    outer loop
      vertex   44.1696 58.0249 8.13049
      vertex   50 63.7082 10.4721
      vertex   41.9425 61.0901 15.7082
    endloop
  endfacet
  facet normal -0.525732 -0.723607 0.447213
    outer loop
      vertex   55.8304 58.0249 8.13049
      vertex   63.0373 54.236 10.4721
      vertex   58.0575 61.0901 15.7082
    endloop
  endfacet
  facet normal -0.525732 -0.723607 0.447213
    outer loop
      vertex   55.8304 58.0249 8.13049
      vertex   58.0575 61.0901 15.7082
      vertex   50 63.7082 10.4721
    endloop
  endfacet
  facet normal -0.850649 0.276392 0.447217
    outer loop
      vertex   38.8649 53.618 18.9442
      vertex   34.6116 55 9.99998
      vertex   34.6116 45.0001 16.1803
    endloop
  endfacet
  facet normal -0.850649 0.276395 0.447217
    outer loop
      vertex   38.8649 53.618 18.9442
      vertex   40.4895 63.0901 16.1803
      vertex   34.6116 55 9.99998
    endloop
  endfacet
  facet normal 0.850651 0.276391 0.447215
    outer loop
      vertex   61.1351 53.618 18.9442
      vertex   65.3884 55 9.99999
      vertex   59.5106 63.0901 16.1803
    endloop
  endfacet
  facet normal 0.850651 0.276391 0.447215
    outer loop
      vertex   61.1351 53.618 18.9442
      vertex   65.3884 45 16.1803
      vertex   65.3884 55 9.99999
    endloop
  endfacet
  facet normal -0.525738 -0.7236 0.447216
    outer loop
      vertex   43.1181 40.5279 18.9442
      vertex   34.6116 45.0001 16.1803
      vertex   40.4894 36.9098 10
    endloop
  endfacet
  facet normal 0.525736 -0.723602 0.447215
    outer loop
      vertex   56.8819 40.5279 18.9442
      vertex   59.5106 36.9098 10
      vertex   65.3884 45 16.1803
    endloop
  endfacet
  facet normal 0.525732 -0.723605 0.447215
    outer loop
      vertex   56.8819 40.5279 18.9442
      vertex   50 33.8196 16.1802
      vertex   59.5106 36.9098 10
    endloop
  endfacet
  facet normal -0.525733 -0.723604 0.447216
    outer loop
      vertex   43.1181 40.5279 18.9442
      vertex   40.4894 36.9098 10
      vertex   50 33.8196 16.1802
    endloop
  endfacet
  facet normal 1.04015e-08 0.894426 0.447216
    outer loop
      vertex   50 61.7082 18.9442
      vertex   59.5106 63.0901 16.1803
      vertex   50 66.1803 10
    endloop
  endfacet
  facet normal -8.17619e-07 0.894426 0.447216
    outer loop
      vertex   50 61.7082 18.9442
      vertex   50 66.1803 10
      vertex   40.4895 63.0901 16.1803
    endloop
  endfacet
  facet normal 0.525737 0.723605 -0.44721
    outer loop
      vertex   44.1696 41.9751 18.0498
      vertex   41.9426 38.9099 10.4721
      vertex   36.9628 45.764 15.7081
    endloop
  endfacet
  facet normal 0.525737 0.723605 -0.44721
    outer loop
      vertex   44.1696 41.9751 18.0498
      vertex   50 36.2918 15.7082
      vertex   41.9426 38.9099 10.4721
    endloop
  endfacet
  facet normal -0.525736 0.723605 -0.447211
    outer loop
      vertex   55.8304 41.9751 18.0498
      vertex   58.0574 38.9099 10.4721
      vertex   50 36.2918 15.7082
    endloop
  endfacet
  facet normal -0.525736 0.723605 -0.447211
    outer loop
      vertex   55.8304 41.9751 18.0498
      vertex   63.0372 45.764 15.7081
      vertex   58.0574 38.9099 10.4721
    endloop
  endfacet
  facet normal 0.850651 -0.276391 -0.447215
    outer loop
      vertex   40.5662 53.0653 18.0498
      vertex   36.9628 45.764 15.7081
      vertex   36.9627 54.2361 10.4721
    endloop
  endfacet
  facet normal 0.850651 -0.276391 -0.447215
    outer loop
      vertex   40.5662 53.0653 18.0498
      vertex   36.9627 54.2361 10.4721
      vertex   41.9425 61.0901 15.7082
    endloop
  endfacet
  facet normal -0.850651 -0.276391 -0.447215
    outer loop
      vertex   59.4338 53.0652 18.0498
      vertex   63.0373 54.236 10.4721
      vertex   63.0372 45.764 15.7081
    endloop
  endfacet
  facet normal -0.850651 -0.27639 -0.447215
    outer loop
      vertex   59.4338 53.0652 18.0498
      vertex   58.0575 61.0901 15.7082
      vertex   63.0373 54.236 10.4721
    endloop
  endfacet
  facet normal -3.88004e-07 -0.894426 -0.447215
    outer loop
      vertex   50 59.9193 18.0498
      vertex   41.9425 61.0901 15.7082
      vertex   50 63.7082 10.4721
    endloop
  endfacet
  facet normal -3.53038e-07 -0.894426 -0.447215
    outer loop
      vertex   50 59.9193 18.0498
      vertex   50 63.7082 10.4721
      vertex   58.0575 61.0901 15.7082
    endloop
  endfacet
  facet normal 0.525737 0.723605 -0.44721
    outer loop
      vertex   44.1696 41.9751 18.0498
      vertex   36.9628 45.764 15.7081
      vertex   41.9426 47.382 24.1803
    endloop
  endfacet
  facet normal 0.850651 -0.276391 -0.447215
    outer loop
      vertex   40.5662 53.0653 18.0498
      vertex   41.9426 47.382 24.1803
      vertex   36.9628 45.764 15.7081
    endloop
  endfacet
  facet normal -0.850651 -0.276391 -0.447215
    outer loop
      vertex   59.4338 53.0652 18.0498
      vertex   63.0372 45.764 15.7081
      vertex   58.0574 47.382 24.1803
    endloop
  endfacet
  facet normal -0.525736 0.723605 -0.447211
    outer loop
      vertex   55.8304 41.9751 18.0498
      vertex   58.0574 47.382 24.1803
      vertex   63.0372 45.764 15.7081
    endloop
  endfacet
  facet normal 0.850651 -0.276391 -0.447215
    outer loop
      vertex   40.5662 53.0653 18.0498
      vertex   41.9425 61.0901 15.7082
      vertex   45.0202 56.8541 24.1803
    endloop
  endfacet
  facet normal -2.67607e-07 -0.894426 -0.447216
    outer loop
      vertex   50 59.9193 18.0498
      vertex   45.0202 56.8541 24.1803
      vertex   41.9425 61.0901 15.7082
    endloop
  endfacet
  facet normal 0.525737 0.723605 -0.44721
    outer loop
      vertex   44.1696 41.9751 18.0498
      vertex   50 41.5278 24.1803
      vertex   50 36.2918 15.7082
    endloop
  endfacet
  facet normal -4.30049e-07 -0.894426 -0.447216
    outer loop
      vertex   50 59.9193 18.0498
      vertex   58.0575 61.0901 15.7082
      vertex   54.9798 56.8541 24.1803
    endloop
  endfacet
  facet normal -0.525735 0.723605 -0.447211
    outer loop
      vertex   55.8304 41.9751 18.0498
      vertex   50 36.2918 15.7082
      vertex   50 41.5278 24.1803
    endloop
  endfacet
  facet normal -0.850651 -0.27639 -0.447215
    outer loop
      vertex   59.4338 53.0652 18.0498
      vertex   54.9798 56.8541 24.1803
      vertex   58.0575 61.0901 15.7082
    endloop
  endfacet
  facet normal -0.525734 -0.723605 0.447214
    outer loop
      vertex   43.1181 40.5279 18.9442
      vertex   50 33.8196 16.1802
      vertex   50 40 26.1802
    endloop
  endfacet
  facet normal 0.525734 -0.723606 0.447211
    outer loop
      vertex   56.8819 40.5279 18.9442
      vertex   50 40 26.1802
      vertex   50 33.8196 16.1802
    endloop
  endfacet
  facet normal 0.850651 0.276391 0.447214
    outer loop
      vertex   61.1351 53.618 18.9442
      vertex   59.5105 46.9098 26.1803
      vertex   65.3884 45 16.1803
    endloop
  endfacet
  facet normal 0.525736 -0.723604 0.447212
    outer loop
      vertex   56.8819 40.5279 18.9442
      vertex   65.3884 45 16.1803
      vertex   59.5105 46.9098 26.1803
    endloop
  endfacet
  facet normal -0.850649 0.276392 0.447217
    outer loop
      vertex   38.8649 53.618 18.9442
      vertex   34.6116 45.0001 16.1803
      vertex   40.4895 46.9098 26.1803
    endloop
  endfacet
  facet normal -0.525738 -0.723604 0.447211
    outer loop
      vertex   43.1181 40.5279 18.9442
      vertex   40.4895 46.9098 26.1803
      vertex   34.6116 45.0001 16.1803
    endloop
  endfacet
  facet normal -4.15737e-07 0.894427 0.447215
    outer loop
      vertex   50 61.7082 18.9442
      vertex   40.4895 63.0901 16.1803
      vertex   44.1222 58.0901 26.1803
    endloop
  endfacet
  facet normal -0.85065 0.276394 0.447214
    outer loop
      vertex   38.8649 53.618 18.9442
      vertex   44.1222 58.0901 26.1803
      vertex   40.4895 63.0901 16.1803
    endloop
  endfacet
  facet normal -7.10193e-08 0.894426 0.447216
    outer loop
      vertex   50 61.7082 18.9442
      vertex   55.8778 58.0901 26.1803
      vertex   59.5106 63.0901 16.1803
    endloop
  endfacet
  facet normal 0.850651 0.276391 0.447214
    outer loop
      vertex   61.1351 53.618 18.9442
      vertex   59.5106 63.0901 16.1803
      vertex   55.8778 58.0901 26.1803
    endloop
  endfacet
  facet normal 0.525736 0.723605 -0.44721
    outer loop
      vertex   44.1696 41.9751 18.0498
      vertex   41.9426 47.382 24.1803
      vertex   50 41.5278 24.1803
    endloop
  endfacet
  facet normal -0.525735 0.723605 -0.447211
    outer loop
      vertex   55.8304 41.9751 18.0498
      vertex   50 41.5278 24.1803
      vertex   58.0574 47.382 24.1803
    endloop
  endfacet
  facet normal 0.850651 -0.276391 -0.447215
    outer loop
      vertex   40.5662 53.0653 18.0498
      vertex   45.0202 56.8541 24.1803
      vertex   41.9426 47.382 24.1803
    endloop
  endfacet
  facet normal -0.850651 -0.276391 -0.447215
    outer loop
      vertex   59.4338 53.0652 18.0498
      vertex   58.0574 47.382 24.1803
      vertex   54.9798 56.8541 24.1803
    endloop
  endfacet
  facet normal -2.56934e-07 -0.894426 -0.447216
    outer loop
      vertex   50 59.9193 18.0498
      vertex   54.9798 56.8541 24.1803
      vertex   45.0202 56.8541 24.1803
    endloop
  endfacet
  facet normal -0.525734 -0.723605 0.447213
    outer loop
      vertex   43.1181 40.5279 18.9442
      vertex   50 40 26.1802
      vertex   40.4895 46.9098 26.1803
    endloop
  endfacet
  facet normal 0.525736 -0.723604 0.447213
    outer loop
      vertex   56.8819 40.5279 18.9442
      vertex   59.5105 46.9098 26.1803
      vertex   50 40 26.1802
    endloop
  endfacet
  facet normal -0.85065 0.276391 0.447216
    outer loop
      vertex   38.8649 53.618 18.9442
      vertex   40.4895 46.9098 26.1803
      vertex   44.1222 58.0901 26.1803
    endloop
  endfacet
  facet normal 0.850651 0.276391 0.447214
    outer loop
      vertex   61.1351 53.618 18.9442
      vertex   55.8778 58.0901 26.1803
      vertex   59.5105 46.9098 26.1803
    endloop
  endfacet
  facet normal 4.35358e-07 0.894426 0.447215
    outer loop
      vertex   50 61.7082 18.9442
      vertex   44.1222 58.0901 26.1803
      vertex   55.8778 58.0901 26.1803
    endloop
  endfacet
  facet normal 8.69661e-07 3.15184e-06 -1
    outer loop
      vertex   50 50 24.1803
      vertex   50 41.5278 24.1803
      vertex   41.9426 47.382 24.1803
    endloop
  endfacet
  facet normal 1.02409e-06 3.15184e-06 -1
    outer loop
      vertex   50 50 24.1803
      vertex   58.0574 47.382 24.1803
      vertex   50 41.5278 24.1803
    endloop
  endfacet
  facet normal 8.73732e-07 3.13931e-06 -1
    outer loop
      vertex   50 50 24.1803
      vertex   41.9426 47.382 24.1803
      vertex   45.0202 56.8541 24.1803
    endloop
  endfacet
  facet normal 9.57551e-07 3.20021e-06 -1
    outer loop
      vertex   50 50 24.1803
      vertex   45.0202 56.8541 24.1803
      vertex   54.9798 56.8541 24.1803
    endloop
  endfacet
  facet normal 1.0241e-06 3.15186e-06 -1
    outer loop
      vertex   50 50 24.1803
      vertex   54.9798 56.8541 24.1803
      vertex   58.0574 47.382 24.1803
    endloop
  endfacet
  facet normal -2.88338e-07 -3.43322e-06 1
    outer loop
      vertex   50 50 26.1803
      vertex   40.4895 46.9098 26.1803
      vertex   50 40 26.1802
    endloop
  endfacet
  facet normal -3.13309e-07 -3.43322e-06 1
    outer loop
      vertex   50 50 26.1803
      vertex   50 40 26.1802
      vertex   59.5105 46.9098 26.1803
    endloop
  endfacet
  facet normal -5.77985e-07 -2.54178e-06 1
    outer loop
      vertex   50 50 26.1803
      vertex   44.1222 58.0901 26.1803
      vertex   40.4895 46.9098 26.1803
    endloop
  endfacet
  facet normal -5.28497e-07 -4.0955e-06 1
    outer loop
      vertex   50 50 26.1803
      vertex   59.5105 46.9098 26.1803
      vertex   55.8778 58.0901 26.1803
    endloop
  endfacet
  facet normal -1.6225e-06 -3.30066e-06 1
    outer loop
      vertex   50 50 26.1803
      vertex   55.8778 58.0901 26.1803
      vertex   44.1222 58.0901 26.1803
    endloop
  endfacet
endsolid