solid Exported from Blender-2.79 (sub 0)
  facet normal 0 0.8506507277488708 0.5257312059402466
    outer loop
      vertex 5.773502349853516 5.773502349853516 5.773502349853516
      vertex 3.568221092224121 9.341723442077637 0
      vertex -5.773502349853516 5.773502349853516 5.773502349853516
    endloop
  endfacet
  facet normal 0 0.85065096616745 0.5257309079170227
    outer loop
      vertex -5.773502349853516 5.773502349853516 5.773502349853516
      vertex 0 3.568221092224121 9.341723442077637
      vertex 5.773502349853516 5.773502349853516 5.773502349853516
    endloop
  endfacet
  facet normal 0 0.8506506681442261 0.5257312655448914
    outer loop
      vertex 3.568221092224121 9.341723442077637 0
      vertex -3.568221092224121 9.341723442077637 0
      vertex -5.773502349853516 5.773502349853516 5.773502349853516
    endloop
  endfacet
  facet normal 0.8506507277488708 0.5257312059402466 0
    outer loop
      vertex 5.773502349853516 5.773502349853516 5.773502349853516
      vertex 9.341723442077637 0 3.568221092224121
      vertex 5.773502349853516 5.773502349853516 -5.773502349853516
    endloop
  endfacet
  facet normal 0.85065096616745 0.5257309079170227 0
    outer loop
      vertex 5.773502349853516 5.773502349853516 -5.773502349853516
      vertex 3.568221092224121 9.341723442077637 0
      vertex 5.773502349853516 5.773502349853516 5.773502349853516
    endloop
  endfacet
  facet normal 0.8506506681442261 0.5257312655448914 0
    outer loop
      vertex 9.341723442077637 0 3.568221092224121
      vertex 9.341723442077637 0 -3.568221092224121
      vertex 5.773502349853516 5.773502349853516 -5.773502349853516
    endloop
  endfacet
  facet normal 0.5257312059402466 0 0.8506507277488708
    outer loop
      vertex 5.773502349853516 5.773502349853516 5.773502349853516
      vertex 0 3.568221092224121 9.341723442077637
      vertex 5.773502349853516 -5.773502349853516 5.773502349853516
    endloop
  endfacet
  facet normal 0.5257309079170227 0 0.85065096616745
    outer loop
      vertex 5.773502349853516 -5.773502349853516 5.773502349853516
      vertex 9.341723442077637 0 3.568221092224121
      vertex 5.773502349853516 5.773502349853516 5.773502349853516
    endloop
  endfacet
  facet normal 0.5257312655448914 0 0.8506506681442261
    outer loop
      vertex 0 3.568221092224121 9.341723442077637
      vertex 0 -3.568221092224121 9.341723442077637
      vertex 5.773502349853516 -5.773502349853516 5.773502349853516
    endloop
  endfacet
  facet normal 0 0.8506507277488708 -0.5257312059402466
    outer loop
      vertex 3.568221092224121 9.341723442077637 0
      vertex 5.773502349853516 5.773502349853516 -5.773502349853516
      vertex -5.773502349853516 5.773502349853516 -5.773502349853516
    endloop
  endfacet
  facet normal 0 0.8506506681442261 -0.5257313251495361
    outer loop
      vertex -5.773502349853516 5.773502349853516 -5.773502349853516
      vertex -3.568221092224121 9.341723442077637 0
      vertex 3.568221092224121 9.341723442077637 0
    endloop
  endfacet
  facet normal 0 0.85065096616745 -0.5257309079170227
    outer loop
      vertex 5.773502349853516 5.773502349853516 -5.773502349853516
      vertex 0 3.568221092224121 -9.341723442077637
      vertex -5.773502349853516 5.773502349853516 -5.773502349853516
    endloop
  endfacet
  facet normal 0.8506507277488708 -0.5257312059402466 0
    outer loop
      vertex 9.341723442077637 0 3.568221092224121
      vertex 5.773502349853516 -5.773502349853516 5.773502349853516
      vertex 5.773502349853516 -5.773502349853516 -5.773502349853516
    endloop
  endfacet
  facet normal 0.8506506681442261 -0.5257313251495361 0
    outer loop
      vertex 5.773502349853516 -5.773502349853516 -5.773502349853516
      vertex 9.341723442077637 0 -3.568221092224121
      vertex 9.341723442077637 0 3.568221092224121
    endloop
  endfacet
  facet normal 0.85065096616745 -0.5257309079170227 0
    outer loop
      vertex 5.773502349853516 -5.773502349853516 5.773502349853516
      vertex 3.568221092224121 -9.341723442077637 0
      vertex 5.773502349853516 -5.773502349853516 -5.773502349853516
    endloop
  endfacet
  facet normal -0.5257312059402466 0 0.8506507277488708
    outer loop
      vertex 0 3.568221092224121 9.341723442077637
      vertex -5.773502349853516 5.773502349853516 5.773502349853516
      vertex -5.773502349853516 -5.773502349853516 5.773502349853516
    endloop
  endfacet
  facet normal -0.5257313251495361 0 0.8506506681442261
    outer loop
      vertex -5.773502349853516 -5.773502349853516 5.773502349853516
      vertex 0 -3.568221092224121 9.341723442077637
      vertex 0 3.568221092224121 9.341723442077637
    endloop
  endfacet
  facet normal -0.5257309079170227 0 0.85065096616745
    outer loop
      vertex -5.773502349853516 5.773502349853516 5.773502349853516
      vertex -9.341723442077637 0 3.568221092224121
      vertex -5.773502349853516 -5.773502349853516 5.773502349853516
    endloop
  endfacet
  facet normal -0.8506508469581604 0.5257309675216675 -7.301194671072153e-8
    outer loop
      vertex -3.568221092224121 9.341723442077637 0
      vertex -5.773502349853516 5.773502349853516 -5.773502349853516
      vertex -9.341723442077637 0 3.568221092224121
    endloop
  endfacet
  facet normal -0.8506507277488708 0.525731086730957 7.875720342553905e-8
    outer loop
      vertex -9.341723442077637 0 3.568221092224121
      vertex -5.773502349853516 5.773502349853516 5.773502349853516
      vertex -3.568221092224121 9.341723442077637 0
    endloop
  endfacet
  facet normal -0.8506506681442261 0.5257313251495361 0
    outer loop
      vertex -5.773502349853516 5.773502349853516 -5.773502349853516
      vertex -9.341723442077637 0 -3.568221092224121
      vertex -9.341723442077637 0 3.568221092224121
    endloop
  endfacet
  facet normal 0 -0.8506507277488708 0.5257312059402466
    outer loop
      vertex -5.773502349853516 -5.773502349853516 5.773502349853516
      vertex -3.568221092224121 -9.341723442077637 0
      vertex 5.773502349853516 -5.773502349853516 5.773502349853516
    endloop
  endfacet
  facet normal 0 -0.85065096616745 0.5257309079170227
    outer loop
      vertex 5.773502349853516 -5.773502349853516 5.773502349853516
      vertex 0 -3.568221092224121 9.341723442077637
      vertex -5.773502349853516 -5.773502349853516 5.773502349853516
    endloop
  endfacet
  facet normal 0 -0.8506506681442261 0.5257312655448914
    outer loop
      vertex -3.568221092224121 -9.341723442077637 0
      vertex 3.568221092224121 -9.341723442077637 0
      vertex 5.773502349853516 -5.773502349853516 5.773502349853516
    endloop
  endfacet
  facet normal 0.5257312059402466 0 -0.8506507277488708
    outer loop
      vertex 5.773502349853516 -5.773502349853516 -5.773502349853516
      vertex 0 -3.568221092224121 -9.341723442077637
      vertex 5.773502349853516 5.773502349853516 -5.773502349853516
    endloop
  endfacet
  facet normal 0.5257309079170227 0 -0.85065096616745
    outer loop
      vertex 5.773502349853516 5.773502349853516 -5.773502349853516
      vertex 9.341723442077637 0 -3.568221092224121
      vertex 5.773502349853516 -5.773502349853516 -5.773502349853516
    endloop
  endfacet
  facet normal 0.5257312655448914 0 -0.8506506681442261
    outer loop
      vertex 0 -3.568221092224121 -9.341723442077637
      vertex 0 3.568221092224121 -9.341723442077637
      vertex 5.773502349853516 5.773502349853516 -5.773502349853516
    endloop
  endfacet
  facet normal -0.5257310271263123 -9.734926464943783e-8 -0.8506508469581604
    outer loop
      vertex -5.773502349853516 -5.773502349853516 -5.773502349853516
      vertex -9.341723442077637 0 -3.568221092224121
      vertex 0 3.568221092224121 -9.341723442077637
    endloop
  endfacet
  facet normal -0.5257312655448914 0 -0.8506506681442261
    outer loop
      vertex 0 3.568221092224121 -9.341723442077637
      vertex 0 -3.568221092224121 -9.341723442077637
      vertex -5.773502349853516 -5.773502349853516 -5.773502349853516
    endloop
  endfacet
  facet normal -0.525731086730957 1.181358157964496e-7 -0.8506507873535156
    outer loop
      vertex -9.341723442077637 0 -3.568221092224121
      vertex -5.773502349853516 5.773502349853516 -5.773502349853516
      vertex 0 3.568221092224121 -9.341723442077637
    endloop
  endfacet
  facet normal -0.8506508469581604 -0.5257310271263123 -9.734926464943783e-8
    outer loop
      vertex -5.773502349853516 -5.773502349853516 -5.773502349853516
      vertex -3.568221092224121 -9.341723442077637 0
      vertex -9.341723442077637 0 3.568221092224121
    endloop
  endfacet
  facet normal -0.8506506681442261 -0.5257312655448914 0
    outer loop
      vertex -9.341723442077637 0 3.568221092224121
      vertex -9.341723442077637 0 -3.568221092224121
      vertex -5.773502349853516 -5.773502349853516 -5.773502349853516
    endloop
  endfacet
  facet normal -0.8506507873535156 -0.525731086730957 1.181358157964496e-7
    outer loop
      vertex -3.568221092224121 -9.341723442077637 0
      vertex -5.773502349853516 -5.773502349853516 5.773502349853516
      vertex -9.341723442077637 0 3.568221092224121
    endloop
  endfacet
  facet normal -9.734926464943783e-8 -0.8506508469581604 -0.5257310271263123
    outer loop
      vertex -5.773502349853516 -5.773502349853516 -5.773502349853516
      vertex 0 -3.568221092224121 -9.341723442077637
      vertex 3.568221092224121 -9.341723442077637 0
    endloop
  endfacet
  facet normal 0 -0.8506506681442261 -0.5257312655448914
    outer loop
      vertex 3.568221092224121 -9.341723442077637 0
      vertex -3.568221092224121 -9.341723442077637 0
      vertex -5.773502349853516 -5.773502349853516 -5.773502349853516
    endloop
  endfacet
  facet normal 1.181358157964496e-7 -0.8506507873535156 -0.525731086730957
    outer loop
      vertex 0 -3.568221092224121 -9.341723442077637
      vertex 5.773502349853516 -5.773502349853516 -5.773502349853516
      vertex 3.568221092224121 -9.341723442077637 0
    endloop
  endfacet
endsolid Exported from Blender-2.79 (sub 0)
